<?xml version="1.0" encoding="UTF-8" standalone="no"?>
<!DOCTYPE svg PUBLIC "-//W3C//DTD SVG 1.1//EN"
 "http://www.w3.org/Graphics/SVG/1.1/DTD/svg11.dtd">
<!-- Generated by graphviz version 2.38.0 (20140413.2041)
 -->
<!-- Title: G Pages: 1 -->
<svg width="506pt" height="862pt"
 viewBox="0.00 0.00 506.09 862.00" xmlns="http://www.w3.org/2000/svg" xmlns:xlink="http://www.w3.org/1999/xlink">
<g id="graph0" class="graph" transform="scale(1 1) rotate(0) translate(4 858)">
<title>G</title>
<polygon fill="white" stroke="none" points="-4,4 -4,-858 502.091,-858 502.091,4 -4,4"/>
<g id="clust1" class="cluster"><title>cluster_Global</title>
<path fill="none" stroke="gray" d="M168.091,-8C168.091,-8 478.091,-8 478.091,-8 484.091,-8 490.091,-14 490.091,-20 490.091,-20 490.091,-834 490.091,-834 490.091,-840 484.091,-846 478.091,-846 478.091,-846 168.091,-846 168.091,-846 162.091,-846 156.091,-840 156.091,-834 156.091,-834 156.091,-20 156.091,-20 156.091,-14 162.091,-8 168.091,-8"/>
<text text-anchor="middle" x="323.091" y="-833.2" font-family="Times New Roman,serif" font-size="11.00" fill="gray">Global</text>
</g>
<g id="clust2" class="cluster"><title>cluster_\Punic</title>
<path fill="none" stroke="gray" d="M176.091,-16C176.091,-16 470.091,-16 470.091,-16 476.091,-16 482.091,-22 482.091,-28 482.091,-28 482.091,-806 482.091,-806 482.091,-812 476.091,-818 470.091,-818 470.091,-818 176.091,-818 176.091,-818 170.091,-818 164.091,-812 164.091,-806 164.091,-806 164.091,-28 164.091,-28 164.091,-22 170.091,-16 176.091,-16"/>
<text text-anchor="middle" x="323.091" y="-805.2" font-family="Times New Roman,serif" font-size="11.00" fill="gray">Punic</text>
</g>
<g id="clust3" class="cluster"><title>cluster_\Punic\Exception</title>
<path fill="none" stroke="gray" d="M325.091,-286C325.091,-286 462.091,-286 462.091,-286 468.091,-286 474.091,-292 474.091,-298 474.091,-298 474.091,-778 474.091,-778 474.091,-784 468.091,-790 462.091,-790 462.091,-790 325.091,-790 325.091,-790 319.091,-790 313.091,-784 313.091,-778 313.091,-778 313.091,-298 313.091,-298 313.091,-292 319.091,-286 325.091,-286"/>
<text text-anchor="middle" x="393.591" y="-777.2" font-family="Times New Roman,serif" font-size="11.00" fill="gray">Exception</text>
</g>
<!-- \\Punic\\Exception\\DataFolderNotFound -->
<g id="node1" class="node"><title>\\Punic\\Exception\\DataFolderNotFound</title>
<polygon fill="none" stroke="black" points="462.591,-762 324.591,-762 324.591,-726 462.591,-726 462.591,-762"/>
<text text-anchor="middle" x="393.591" y="-741.2" font-family="Courier,monospace" font-size="11.00">DataFolderNotFound</text>
</g>
<!-- \\Punic\\Exception -->
<g id="node14" class="node"><title>\\Punic\\Exception</title>
<polygon fill="none" stroke="black" points="249.091,-546 172.091,-546 172.091,-510 249.091,-510 249.091,-546"/>
<text text-anchor="middle" x="210.591" y="-525.2" font-family="Courier,monospace" font-size="11.00">Exception</text>
</g>
<!-- \\Punic\\Exception\\DataFolderNotFound&#45;&gt;\\Punic\\Exception -->
<g id="edge1" class="edge"><title>\\Punic\\Exception\\DataFolderNotFound&#45;&gt;\\Punic\\Exception</title>
<path fill="none" stroke="black" d="M326.237,-725.965C321.546,-723.363 317.096,-720.391 313.091,-717 261.605,-673.397 232.161,-596.867 219.344,-555.842"/>
<polygon fill="none" stroke="black" points="222.68,-554.781 216.441,-546.218 215.978,-556.803 222.68,-554.781"/>
</g>
<!-- \\Punic\\Exception\\BadDataFileContents -->
<g id="node2" class="node"><title>\\Punic\\Exception\\BadDataFileContents</title>
<polygon fill="none" stroke="black" points="466.091,-708 321.091,-708 321.091,-672 466.091,-672 466.091,-708"/>
<text text-anchor="middle" x="393.591" y="-687.2" font-family="Courier,monospace" font-size="11.00">BadDataFileContents</text>
</g>
<!-- \\Punic\\Exception\\BadDataFileContents&#45;&gt;\\Punic\\Exception -->
<g id="edge2" class="edge"><title>\\Punic\\Exception\\BadDataFileContents&#45;&gt;\\Punic\\Exception</title>
<path fill="none" stroke="black" d="M327.989,-671.876C322.742,-669.279 317.695,-666.334 313.091,-663 273.445,-634.29 242.345,-585.619 225.503,-555.227"/>
<polygon fill="none" stroke="black" points="228.378,-553.184 220.544,-546.05 222.219,-556.512 228.378,-553.184"/>
</g>
<!-- \\Punic\\Exception\\DataFileNotFound -->
<g id="node3" class="node"><title>\\Punic\\Exception\\DataFileNotFound</title>
<polygon fill="none" stroke="black" points="456.091,-654 331.091,-654 331.091,-618 456.091,-618 456.091,-654"/>
<text text-anchor="middle" x="393.591" y="-633.2" font-family="Courier,monospace" font-size="11.00">DataFileNotFound</text>
</g>
<!-- \\Punic\\Exception\\DataFileNotFound&#45;&gt;\\Punic\\Exception -->
<g id="edge3" class="edge"><title>\\Punic\\Exception\\DataFileNotFound&#45;&gt;\\Punic\\Exception</title>
<path fill="none" stroke="black" d="M332.165,-617.969C325.585,-615.278 319.102,-612.287 313.091,-609 285.276,-593.787 257.392,-570.846 237.908,-553.258"/>
<polygon fill="none" stroke="black" points="240.089,-550.509 230.355,-546.327 235.356,-555.667 240.089,-550.509"/>
</g>
<!-- \\Punic\\Exception\\BadArgumentType -->
<g id="node4" class="node"><title>\\Punic\\Exception\\BadArgumentType</title>
<polygon fill="none" stroke="black" points="452.591,-600 334.591,-600 334.591,-564 452.591,-564 452.591,-600"/>
<text text-anchor="middle" x="393.591" y="-579.2" font-family="Courier,monospace" font-size="11.00">BadArgumentType</text>
</g>
<!-- \\Punic\\Exception\\BadArgumentType&#45;&gt;\\Punic\\Exception -->
<g id="edge4" class="edge"><title>\\Punic\\Exception\\BadArgumentType&#45;&gt;\\Punic\\Exception</title>
<path fill="none" stroke="black" d="M334.325,-564.617C310.019,-557.365 282.145,-549.049 259.11,-542.177"/>
<polygon fill="none" stroke="black" points="259.812,-538.734 249.228,-539.229 257.81,-545.442 259.812,-538.734"/>
</g>
<!-- \\Punic\\Exception\\InvalidLocale -->
<g id="node5" class="node"><title>\\Punic\\Exception\\InvalidLocale</title>
<polygon fill="none" stroke="black" points="445.591,-546 341.591,-546 341.591,-510 445.591,-510 445.591,-546"/>
<text text-anchor="middle" x="393.591" y="-525.2" font-family="Courier,monospace" font-size="11.00">InvalidLocale</text>
</g>
<!-- \\Punic\\Exception\\InvalidLocale&#45;&gt;\\Punic\\Exception -->
<g id="edge5" class="edge"><title>\\Punic\\Exception\\InvalidLocale&#45;&gt;\\Punic\\Exception</title>
<path fill="none" stroke="black" d="M341.208,-528C315.488,-528 284.547,-528 259.347,-528"/>
<polygon fill="none" stroke="black" points="259.287,-524.5 249.287,-528 259.287,-531.5 259.287,-524.5"/>
</g>
<!-- \\Punic\\Exception\\ValueNotInList -->
<g id="node6" class="node"><title>\\Punic\\Exception\\ValueNotInList</title>
<polygon fill="none" stroke="black" points="449.091,-492 338.091,-492 338.091,-456 449.091,-456 449.091,-492"/>
<text text-anchor="middle" x="393.591" y="-471.2" font-family="Courier,monospace" font-size="11.00">ValueNotInList</text>
</g>
<!-- \\Punic\\Exception\\ValueNotInList&#45;&gt;\\Punic\\Exception -->
<g id="edge6" class="edge"><title>\\Punic\\Exception\\ValueNotInList&#45;&gt;\\Punic\\Exception</title>
<path fill="none" stroke="black" d="M337.794,-490.348C312.645,-497.851 283.116,-506.661 258.947,-513.872"/>
<polygon fill="none" stroke="black" points="257.87,-510.541 249.288,-516.754 259.871,-517.248 257.87,-510.541"/>
</g>
<!-- \\Punic\\Exception\\DataFileNotReadable -->
<g id="node7" class="node"><title>\\Punic\\Exception\\DataFileNotReadable</title>
<polygon fill="none" stroke="black" points="466.091,-438 321.091,-438 321.091,-402 466.091,-402 466.091,-438"/>
<text text-anchor="middle" x="393.591" y="-417.2" font-family="Courier,monospace" font-size="11.00">DataFileNotReadable</text>
</g>
<!-- \\Punic\\Exception\\DataFileNotReadable&#45;&gt;\\Punic\\Exception -->
<g id="edge7" class="edge"><title>\\Punic\\Exception\\DataFileNotReadable&#45;&gt;\\Punic\\Exception</title>
<path fill="none" stroke="black" d="M332.165,-438.031C325.585,-440.722 319.102,-443.713 313.091,-447 285.276,-462.213 257.392,-485.154 237.908,-502.742"/>
<polygon fill="none" stroke="black" points="235.356,-500.333 230.355,-509.673 240.089,-505.491 235.356,-500.333"/>
</g>
<!-- \\Punic\\Exception\\InvalidDataFile -->
<g id="node8" class="node"><title>\\Punic\\Exception\\InvalidDataFile</title>
<polygon fill="none" stroke="black" points="452.591,-384 334.591,-384 334.591,-348 452.591,-348 452.591,-384"/>
<text text-anchor="middle" x="393.591" y="-363.2" font-family="Courier,monospace" font-size="11.00">InvalidDataFile</text>
</g>
<!-- \\Punic\\Exception\\InvalidDataFile&#45;&gt;\\Punic\\Exception -->
<g id="edge9" class="edge"><title>\\Punic\\Exception\\InvalidDataFile&#45;&gt;\\Punic\\Exception</title>
<path fill="none" stroke="black" d="M334.532,-381.101C326.957,-384.37 319.584,-388.298 313.091,-393 273.445,-421.71 242.345,-470.381 225.503,-500.773"/>
<polygon fill="none" stroke="black" points="222.219,-499.488 220.544,-509.95 228.378,-502.816 222.219,-499.488"/>
</g>
<!-- \\Punic\\Exception\\NotImplemented -->
<g id="node9" class="node"><title>\\Punic\\Exception\\NotImplemented</title>
<polygon fill="none" stroke="black" points="449.091,-330 338.091,-330 338.091,-294 449.091,-294 449.091,-330"/>
<text text-anchor="middle" x="393.591" y="-309.2" font-family="Courier,monospace" font-size="11.00">NotImplemented</text>
</g>
<!-- \\Punic\\Exception\\NotImplemented&#45;&gt;\\Punic\\Exception -->
<g id="edge10" class="edge"><title>\\Punic\\Exception\\NotImplemented&#45;&gt;\\Punic\\Exception</title>
<path fill="none" stroke="black" d="M337.938,-324.437C329.005,-328.123 320.321,-332.877 313.091,-339 261.605,-382.603 232.161,-459.133 219.344,-500.158"/>
<polygon fill="none" stroke="black" points="215.978,-499.197 216.441,-509.782 222.68,-501.219 215.978,-499.197"/>
</g>
<!-- \\Punic\\Data -->
<g id="node10" class="node"><title>\\Punic\\Data</title>
<polygon fill="none" stroke="black" points="420.591,-276 366.591,-276 366.591,-240 420.591,-240 420.591,-276"/>
<text text-anchor="middle" x="393.591" y="-255.2" font-family="Courier,monospace" font-size="11.00">Data</text>
</g>
<!-- \\Punic\\Unit -->
<g id="node11" class="node"><title>\\Punic\\Unit</title>
<polygon fill="none" stroke="black" points="420.591,-222 366.591,-222 366.591,-186 420.591,-186 420.591,-222"/>
<text text-anchor="middle" x="393.591" y="-201.2" font-family="Courier,monospace" font-size="11.00">Unit</text>
</g>
<!-- \\Punic\\Calendar -->
<g id="node12" class="node"><title>\\Punic\\Calendar</title>
<polygon fill="none" stroke="black" points="429.091,-168 358.091,-168 358.091,-132 429.091,-132 429.091,-168"/>
<text text-anchor="middle" x="393.591" y="-147.2" font-family="Courier,monospace" font-size="11.00">Calendar</text>
</g>
<!-- \\Punic\\Plural -->
<g id="node13" class="node"><title>\\Punic\\Plural</title>
<polygon fill="none" stroke="black" points="422.091,-114 365.091,-114 365.091,-78 422.091,-78 422.091,-114"/>
<text text-anchor="middle" x="393.591" y="-93.2" font-family="Courier,monospace" font-size="11.00">Plural</text>
</g>
<!-- \\Exception -->
<g id="node16" class="node"><title>\\Exception</title>
<ellipse fill="none" stroke="black" cx="50.0456" cy="-528" rx="50.0912" ry="18"/>
<text text-anchor="middle" x="50.0456" y="-524.3" font-family="Times New Roman,serif" font-size="14.00" fill="gray">\Exception</text>
</g>
<!-- \\Punic\\Exception&#45;&gt;\\Exception -->
<g id="edge8" class="edge"><title>\\Punic\\Exception&#45;&gt;\\Exception</title>
<path fill="none" stroke="black" d="M172.018,-528C153.687,-528 131.198,-528 110.605,-528"/>
<polygon fill="none" stroke="black" points="110.358,-524.5 100.358,-528 110.358,-531.5 110.358,-524.5"/>
</g>
<!-- \\Punic\\Misc -->
<g id="node15" class="node"><title>\\Punic\\Misc</title>
<polygon fill="none" stroke="black" points="420.591,-60 366.591,-60 366.591,-24 420.591,-24 420.591,-60"/>
<text text-anchor="middle" x="393.591" y="-39.2" font-family="Courier,monospace" font-size="11.00">Misc</text>
</g>
</g>
</svg>
